<svg id="Layer_1" data-name="Layer 1" xmlns="http://www.w3.org/2000/svg" viewBox="0 0 464 464"><defs><style>.cls-1{fill:#fcd795;}.cls-2{fill:#ffe1ad;}.cls-3{fill:#f5b02e;}.cls-4{fill:#ebebeb;}.cls-5{fill:#f8f8f8;}.cls-6{fill:#d38e14;}.cls-7{fill:#905638;}.cls-8{fill:#5d8668;}.cls-9{fill:#c3744c;}.cls-10{fill:#b6eaef;}.cls-11{fill:#acdee3;}</style></defs><title>sea</title><circle class="cls-1" cx="232" cy="232" r="232"/><path class="cls-2" d="M456,264a8,8,0,0,1-8-8A192,192,0,0,0,363.34,96.78a8,8,0,0,1,9-13.26A207.92,207.92,0,0,1,464,256,8,8,0,0,1,456,264Z" transform="translate(-23.99 -24)"/><path class="cls-2" d="M60.15,304.79a8,8,0,0,1-7.82-6.37A208.34,208.34,0,0,1,123.68,95.5a8,8,0,1,1,10.19,12.34A192.37,192.37,0,0,0,68,295.17a8,8,0,0,1-7.84,9.62Z" transform="translate(-23.99 -24)"/><circle class="cls-3" cx="224" cy="152" r="72"/><path class="cls-4" d="M396.43,264,390,256a32,32,0,0,0-64,0h-6.64c-13,0-24.65,9.73-25.33,22.71A24,24,0,0,0,316.71,304l1.29,0h82Z" transform="translate(-23.99 -24)"/><path class="cls-5" d="M430,288h-8a32,32,0,0,0-64,0h-8a24,24,0,0,0,0,48h80a24,24,0,0,0,0-48Z" transform="translate(-23.99 -24)"/><path class="cls-6" d="M248,296a8,8,0,0,1-8-8v-8a8,8,0,0,1,16,0v8A8,8,0,0,1,248,296Z" transform="translate(-23.99 -24)"/><path class="cls-6" d="M360,184h-8a8,8,0,0,1,0-16h8a8,8,0,0,1,0,16Z" transform="translate(-23.99 -24)"/><path class="cls-6" d="M321.54,110.46a8,8,0,0,1-5.66-13.66l5.66-5.66A8,8,0,1,1,333,102.29l-.17.16-5.66,5.66a8,8,0,0,1-5.66,2.35Z" transform="translate(-23.99 -24)"/><path class="cls-6" d="M248,80a8,8,0,0,1-8-8V64a8,8,0,0,1,16,0v8A8,8,0,0,1,248,80Z" transform="translate(-23.99 -24)"/><path class="cls-6" d="M174.46,110.46a8,8,0,0,1-5.66-2.35l-5.66-5.66a8,8,0,1,1,11.12-11.51l.19.2,5.66,5.66a8,8,0,0,1-5.65,13.66Z" transform="translate(-23.99 -24)"/><path class="cls-6" d="M144,184h-8a8,8,0,0,1,0-16h8a8,8,0,0,1,0,16Z" transform="translate(-23.99 -24)"/><path class="cls-6" d="M168.8,263.2a8,8,0,0,1-5.66-13.66l5.66-5.66A8,8,0,0,1,180.28,255l-.16.17-5.66,5.66a8,8,0,0,1-5.66,2.34Z" transform="translate(-23.99 -24)"/><path class="cls-7" d="M114.91,320a8,8,0,0,1-8-8V289.94a89.35,89.35,0,0,1,26.35-63.6,8,8,0,1,1,11.47,11.14l-.16.17a73.49,73.49,0,0,0-21.66,52.29V312A8,8,0,0,1,114.91,320Z" transform="translate(-23.99 -24)"/><path class="cls-8" d="M194.49,216.5l-3-1a61.91,61.91,0,0,0-38-.15A49.59,49.59,0,0,1,190.39,189,8,8,0,1,0,188,173.2,65.48,65.48,0,0,0,144,200.36a65.43,65.43,0,0,0-33.46-39.52,8,8,0,0,0-7.16,14.31,49.56,49.56,0,0,1,26.93,36.51A61.82,61.82,0,0,0,94.07,200H90.91a8,8,0,1,0,0,16h3.16a45.73,45.73,0,0,1,30,11.18,77,77,0,0,0-46.68,32.38,8,8,0,1,0,13.22,9l.09-.13a61.21,61.21,0,0,1,39.2-26.25l7.52-1.5,4,4A49.66,49.66,0,0,1,156,280a8,8,0,0,0,16,0,65.49,65.49,0,0,0-19.31-46.62l-.32-.32a45.79,45.79,0,0,1,34.13-2.34l3,1a8,8,0,1,0,5.26-15.11l-.27-.09Z" transform="translate(-23.99 -24)"/><path class="cls-9" d="M128,308.37H112a64,64,0,0,0-62.4,49.9,232,232,0,0,0,18.49,30.1H192v-16A64,64,0,0,0,128,308.37Z" transform="translate(-23.99 -24)"/><path class="cls-10" d="M421.61,370.71l-9.72,7a40,40,0,0,1-46.91,0l-9.69-7-9.68,7a40,40,0,0,1-46.92,0l-9.69-7-9.69,7a40,40,0,0,1-46.92,0l-9.69-7-9.66,7a40,40,0,0,1-46.94,0l-9.65-7-9.66,7a40,40,0,0,1-46.94,0l-9.64-7-9.65,7a39.87,39.87,0,0,1-17.5,7.15A231.92,231.92,0,0,0,229.42,486.43L286,486A231.87,231.87,0,0,0,448.89,384.9a39.94,39.94,0,0,1-17.53-7.13Z" transform="translate(-23.99 -24)"/><path class="cls-11" d="M411.89,424.38a40,40,0,0,1-46.91,0l-9.69-7-9.68,7a40,40,0,0,1-46.92,0l-9.69-7-9.69,7a40,40,0,0,1-46.92,0l-9.69-7-9.66,7a40,40,0,0,1-46.94,0l-9.65-7-9.66,7a40,40,0,0,1-46.94,0l-9.64-7-.49.35c89.21,91.83,236,94,327.81,4.74,1.58-1.53,3.14-3.09,4.67-4.66l-.59-.43Z" transform="translate(-23.99 -24)"/></svg>