<svg height="512pt" viewBox="0 0 512 512" width="512pt" xmlns="http://www.w3.org/2000/svg"><path d="m512 261.621094c0 138.28125-112.097656 250.378906-250.378906 250.378906s-250.378906-112.097656-250.378906-250.378906 112.097656-250.378906 250.378906-250.378906 250.378906 112.097656 250.378906 250.378906zm0 0" fill="#0ed1b2"/><path d="m164.023438 428c0 8.464844-6.863282 15.328125-15.328126 15.328125h-59.332031c-10.332031-9.253906-19.140625-19.699219-27.441406-30.65625h86.773437c8.464844 0 15.328126 6.863281 15.328126 15.328125zm207.601562-15.328125h-112.417969c-8.464843 0-15.328125 6.863281-15.328125 15.328125s6.863282 15.328125 15.328125 15.328125h112.417969c8.464844 0 15.328125-6.863281 15.328125-15.328125s-6.863281-15.328125-15.328125-15.328125zm-204.746094-131.632813h-112.417968c-8.464844 0-15.328126 6.863282-15.328126 15.328126 0 8.464843 6.863282 15.328124 15.328126 15.328124h112.417968c8.464844 0 15.328125-6.863281 15.328125-15.328124 0-8.464844-6.863281-15.328126-15.328125-15.328126zm117.734375-165.996093h112.417969c8.464844 0 15.328125-6.863281 15.328125-15.328125 0-8.46875-6.863281-15.332032-15.328125-15.332032h-112.417969c-8.464843 0-15.328125 6.863282-15.328125 15.332032 0 8.464844 6.863282 15.328125 15.328125 15.328125zm192.773438 69.214843h-112.414063c-8.464844 0-15.328125 6.867188-15.328125 15.332032s6.863281 15.328125 15.328125 15.328125h112.414063c8.464843 0 15.328125-6.863281 15.328125-15.328125s-6.863282-15.332032-15.328125-15.332032zm0 0" fill="#5de0c3"/><path d="m395.378906 308.992188c65.597656 44.25 81.027344 58.207031 74.722656 69.132812-6.320312 10.941406-32.875 15.875-104.179687-18.925781-4.59375-2.242188-10.070313-1.308594-13.734375 2.253906-.0625.0625-.125.121094-.1875.179687-3.566406 3.453126-4.71875 8.710938-2.8125 13.292969 17.941406 43.136719 24.894531 72.917969 16.332031 77.863281-8.386719 4.839844-29.957031-15.109374-57.496093-50.773437-4.015626-5.195313-10.738282-7.503906-17.085938-5.816406-.089844.023437-.183594.046875-.273438.070312-6.371093 1.679688-11.125 7.03125-11.996093 13.566407-5.972657 44.75-14.304688 72.527343-23.519531 72.527343-9.378907 0-17.84375-28.777343-23.835938-74.9375-.671875-5.183593-4.496094-9.367187-9.570312-10.617187-.09375-.023438-.1875-.046875-.28125-.070313-5.1875-1.292969-10.632813.734375-13.617188 5.167969-44.703125 66.4375-81.492188 108.15625-92.472656 101.820312-10.972656-6.335937 6.722656-58.96875 41.84375-130.796874 2.410156-4.9375 1.421875-10.816407-2.386719-14.777344-.042969-.042969-.082031-.085938-.125-.132813-3.730469-3.886719-9.4375-5.148437-14.410156-3.074219-42.875 17.867188-71.738281 24.972657-76.3125 17.046876-4.550781-7.878907 15.777343-29.125 52.296875-57.089844 4.621094-3.535156 6.53125-9.539063 4.9375-15.136719-.015625-.0625-.035156-.128906-.050782-.1875-1.597656-5.652344-6.441406-9.789063-12.289062-10.3125-65.515625-5.859375-108.875-16.050781-108.875-27.644531s43.378906-21.789063 108.914062-27.648438c5.824219-.523437 10.648438-4.640625 12.238282-10.269531.019531-.0625.035156-.125.054687-.1875 1.582031-5.570313-.320312-11.546875-4.917969-15.070313-36.53125-27.976562-56.882812-49.277343-52.308593-57.195312 4.515625-7.828125 32.519531-1.109375 74.1875 16.082031 6.207031 2.558594 13.34375 1.089844 18.066406-3.683593.050781-.050782.105469-.105469.15625-.15625 4.679687-4.714844 6.105469-11.773438 3.582031-17.917969-17.09375-41.652344-23.578125-70.28125-15.195312-75.121094 8.53125-4.925781 30.703125 15.804687 58.933594 52.636719 3.203124 4.179687 8.632812 5.914062 13.699218 4.488281.058594-.015625.117188-.03125.171875-.046875 5.199219-1.453125 8.972657-5.925781 9.417969-11.304688 5.769531-69.671874 16.21875-116.226562 28.148438-116.226562 11.898437 0 22.320312 46.292969 28.097656 115.644531.480468 5.722657 4.515625 10.472657 10.039062 12.042969.0625.019531.121094.035156.183594.054688 5.457031 1.558593 11.316406-.304688 14.765625-4.8125 28.035156-36.636719 49.367187-57.046876 57.285156-52.476563 7.953125 4.589844.839844 33.511719-17.046875 76.429687-2.054687 4.925782-.804687 10.574219 3.046875 14.265626.046875.042968.089844.085937.136719.128906 3.925781 3.773437 9.757812 4.75 14.644531 2.351562 73.03125-35.867187 126.675781-54.0625 133.0625-43.003906 6.386719 11.066406-36.289062 48.496094-103.992187 93.878906-4.378906 2.933594-6.382813 8.300782-5.109375 13.417969.023437.097656.050781.191406.074219.289063 1.230468 4.996093 5.347656 8.757812 10.449218 9.421874 46.222656 6 75.105469 14.527344 75.105469 23.988282 0 9.453125-28.835937 17.972656-75 23.972656-5.160156.671875-9.332031 4.480469-10.582031 9.535156-.023438.09375-.046875.1875-.070313.28125-1.289062 5.171875.722657 10.601563 5.140625 13.582032zm0 0" fill="#fdf385"/><path d="m349.644531 261.621094c0 52.1875-42.308593 94.492187-94.496093 94.492187s-94.492188-42.304687-94.492188-94.492187 42.304688-94.496094 94.492188-94.496094 94.496093 42.308594 94.496093 94.496094zm0 0" fill="#fdbf43"/><path d="m349.644531 261.621094c0 18.894531-5.550781 36.488281-15.101562 51.253906-14.765625 9.550781-32.359375 15.097656-51.253907 15.097656-52.1875 0-94.492187-42.304687-94.492187-94.492187 0-18.894531 5.546875-36.492188 15.097656-51.253907 14.765625-9.550781 32.359375-15.101562 51.253907-15.101562 52.1875 0 94.496093 42.308594 94.496093 94.496094zm0 0" fill="#fdcb6b"/><path d="m495.648438 237.09375c5.398437 0 10.597656.9375 15.410156 2.648438.941406 7.1875.941406 14.503906.941406 21.878906 0 50.546875-14.179688 97.722656-40.734375 136.941406h-159.570313c-25.398437 0-45.988281-20.589844-45.988281-45.988281 0-25.398438 20.589844-45.988281 45.988281-45.988281h45.988282c12.769531 0 22.863281-10.480469 22.792968-23.246094 0-.085938 0-.171875 0-.257813 0-25.398437 20.589844-45.988281 45.988282-45.988281zm0 0" fill="#d3f1f5"/><path d="m286.679688 391.152344c-12.621094-8.199219-20.972657-22.40625-20.972657-38.578125 0-25.398438 20.589844-45.988281 45.988281-45.988281h45.988282c12.769531 0 22.863281-10.480469 22.792968-23.246094 0-.085938 0-.171875 0-.257813 0-25.398437 20.589844-45.988281 45.988282-45.988281h20.71875c-23.03125 8.25-39.515625 30.261719-39.515625 56.132812v.332032c.09375 16.550781-12.992188 30.136718-29.542969 30.136718h-32.363281c-32.925781 0-59.613281 26.691407-59.613281 59.613282 0 2.660156.191406 5.277344.53125 7.84375zm0 0" fill="#ade8f0"/></svg>