<svg id="Capa_1" enable-background="new 0 0 512 512" height="512" viewBox="0 0 512 512" width="512" xmlns="http://www.w3.org/2000/svg"><circle cx="256" cy="256" fill="#ffda00" r="256"/><path d="m370.534 484.993c79.326-39.754 135.118-119.501 140.942-212.805l-184.193-184.192-224.581 82.828 44.445 44.445-27.946 18.391z" fill="#ffa300"/><path d="m352.802 447.554h-193.604v-294.072c0-53.462 43.34-96.802 96.802-96.802 53.462 0 96.802 43.34 96.802 96.802z" fill="#414952"/><path d="m352.802 153.482c0-53.462-43.34-96.802-96.802-96.802-.135 0 .135.005 0 .005v390.869h96.802z" fill="#23272b"/><path d="m439.58 434.396-32.84-41.52-101.934-37.124c-9.402-3.424-15.659-12.362-15.659-22.368v-22.078h-66.294v22.078c0 10.006-6.257 18.944-15.659 22.368l-101.934 37.124-31.482 42.911c46.419 47.045 110.91 76.213 182.222 76.213 72.011 0 137.065-29.745 183.58-77.604z" fill="#faa68e"/><path d="m256 512c72.011 0 137.065-29.745 183.581-77.604l-32.84-41.52-101.934-37.125c-9.402-3.424-15.659-12.362-15.659-22.368v-22.078h-33.148z" fill="#d47f6c"/><circle cx="166.449" cy="206.671" fill="#e09380" r="29.716"/><circle cx="345.551" cy="206.671" fill="#cc6d58" r="29.716"/><path d="m295.566 317.923-19.844 10.194c-12.379 6.359-27.065 6.359-39.443 0l-19.844-10.194c-29.406-15.106-47.895-45.389-47.895-78.448v-77.346c0-48.303 39.158-87.46 87.461-87.46 48.303 0 87.461 39.157 87.461 87.46v77.346c-.001 33.059-18.49 63.342-47.896 78.448z" fill="#ffbeaa"/><path d="m256 74.668c-.135 0 .135.005 0 .005v258.201c6.901.064 13.409-1.515 19.722-4.757l19.844-10.194c29.406-15.105 47.895-45.389 47.895-78.448v-77.346c-.001-48.303-39.158-87.461-87.461-87.461z" fill="#e09380"/><path d="m345.386 203.777h-181.106v-48.67c0-50.011 41.709-90.553 91.72-90.553 50.011 0 89.386 40.542 89.386 90.553z" fill="#414952"/><path d="m345.386 155.107c0-49.756-39.727-90.133-89.386-90.543v139.213h89.386z" fill="#23272b"/><path d="m347.693 450.917v-79.545l-31.885-11.613v88.638l-59.808 59.832-59.807-59.813v-88.657l-31.885 11.613v79.526l-30.226 30.238c36.248 19.676 77.773 30.864 121.918 30.864 44.142 0 85.66-11.192 121.906-30.867z" fill="#4a7aff"/><path d="m256 512c44.142 0 85.66-11.192 121.906-30.867l-30.213-30.217v-79.545l-31.885-11.613v88.638l-59.808 59.833z" fill="#0053bf"/><path d="m315.807 385.5h31.885v23.5h-31.885z" fill="#65b1fc"/><path d="m164.307 385.5h31.885v23.5h-31.885z" fill="#a3d4ff"/><path d="m200.776 453-4.583-4.584v-18.916h-31.886v21.397l-2.101 2.103z" fill="#a3d4ff"/><path d="m347.693 450.917v-21.417h-31.886v18.896l-4.601 4.604h38.57z" fill="#65b1fc"/><path d="m267.222 497h75.267c12.266-4.407 24.098-9.723 35.416-15.867l-7.632-7.633h-79.56z" fill="#65b1fc"/><path d="m221.273 473.5h-79.56l-7.632 7.635c11.317 6.143 23.148 11.458 35.413 15.865h75.276z" fill="#a3d4ff"/><path d="m141.442 148.753c-7.978-14.858-5.276-33.188 6.649-45.113l15.644-15.644 15.644 15.644c11.925 11.925 14.626 30.255 6.649 45.113z" fill="#fff"/><path d="m179.38 103.64-15.63-15.63v60.743h22.278c7.978-14.858 5.276-33.188-6.648-45.113z" fill="#e9edf5"/><g fill="#fff"><path d="m139.16 183.434c-16.541 3.285-33.281-4.658-41.198-19.548l-10.387-19.535 19.535-10.387c14.89-7.917 33.21-5.141 45.086 6.832z"/><path d="m171.658 195.756c-1.695 16.779-14.185 30.465-30.739 33.683l-21.718 4.221-4.222-21.718c-3.218-16.555 4.793-33.262 19.715-41.119z"/><path d="m192.943 168.281c15.55 6.526 24.987 22.472 23.224 39.244l-2.313 22.003-22.003-2.313c-16.772-1.763-30.407-14.308-33.558-30.876z"/></g><path d="m192.943 168.281-26.494 22.822-.746 21.602c6.144 9.497 14.397 13.275 26.148 14.509l22.003 2.313 2.313-22.003c1.763-16.771-7.674-32.717-23.224-39.243z" fill="#e9edf5"/><path d="m172.892 139.893c10.788-12.963 28.795-17.325 44.319-10.735l20.366 8.645-8.645 20.366c-6.589 15.524-22.573 24.895-39.338 23.064z" fill="#e9edf5"/><path d="m190.577 127.954-26.842 39.682-16.526-17.581z" fill="#ffda00"/><path d="m163.75 141.625v25.989l26.827-39.66z" fill="#ffbd00"/><path d="m136.894 131.369 26.841 36.267-21.774 11.295z" fill="#ffbd00"/><path d="m121.21 182.695 44.462-15.745-.912 24.153z" fill="#ffda00"/><path d="m163.735 167.636 1.968 45.069 21.866-41.248z" fill="#ffa426"/><path d="m163.735 167.636 43.675 11.295-30.925-30.144z" fill="#ff873c"/></svg>